<?xml version='1.0' encoding='utf-8'?>
<!DOCTYPE svg PUBLIC '-//W3C//DTD SVG 1.1//EN' 'http://www.w3.org/Graphics/SVG/1.1/DTD/svg11.dtd'>
<svg version="1.1" xmlns="http://www.w3.org/2000/svg" viewBox="0 0 512 512" xmlns:xlink="http://www.w3.org/1999/xlink" enable-background="new 0 0 512 512">
  <g>
    <g>
      <path d="m470,480.1c-2.9-144.7-65.7-268.9-155.5-308.6v-52.1l15.7-95.9c1-3.1-1.1-12.5-10.4-12.5h-127.5c-10.5,0-11.3,7.6-10.4,12.5l15.7,95.9v52.1c-89.9,38.7-152.7,163.9-155.6,308.6h-21v20.9h470v-20.9h-21zm-161.8-448.2l-12.2,76.1h-78.9l-12.2-76.1h103.3zm-13.6,96.9v38.6h-76.2v-38.6h76.2zm-231.8,351.3c3.1-139.7 63.7-259.6 149.4-291.9h88.8c84.6,32.3 145.2,152.2 148.3,291.9h-386.5z"/>
      <path d="m280.6,300.5h18.3c0-20.5-14.5-37.6-33.7-41.8v-20.1h-18.3v20.1c-19.3,4.2-33.7,21.4-33.7,41.8 0,20.5 14.5,37.6 33.7,41.8v48.3c-9-3.6-15.4-12.5-15.4-22.8h-18.3c0,20.5 14.5,37.6 33.7,41.8v20.1h18.3v-20.1c19.3-4.2 33.7-21.4 33.7-41.8s-14.5-37.6-33.7-41.8v-48.3c9,3.7 15.4,12.5 15.4,22.8zm-33.8,22.8c-9-3.6-15.4-12.5-15.4-22.8s6.4-19.1 15.4-22.8v45.6zm33.8,44.6c0,10.3-6.4,19.1-15.4,22.8v-45.5c9,3.5 15.4,12.4 15.4,22.7z"/>
    </g>
  </g>
</svg>
